<svg version="1.1" xmlns="http://www.w3.org/2000/svg" viewBox="0 0 1817.7083077948864 1012.0624175918515" width="3635.416615589773" height="2024.124835183703">
  <!-- svg-source:excalidraw -->
  
  <defs>
    <style class="style-fonts">
      @font-face {
        font-family: "Virgil";
        src: url("https://excalidraw.com/Virgil.woff2");
      }
      @font-face {
        font-family: "Cascadia";
        src: url("https://excalidraw.com/Cascadia.woff2");
      }
    </style>
  </defs>
  <rect x="0" y="0" width="1817.7083077948864" height="1012.0624175918515" fill="#ffffff"></rect><g stroke-linecap="round" transform="translate(10 83.1601318673965) rotate(0 898.8541538974432 459.4511428622275)"><path d="M32 0 M32 0 C647.88 -1.86, 1262.64 -1.81, 1765.71 0 M32 0 C721.52 2.12, 1411.2 1.52, 1765.71 0 M1765.71 0 C1787.39 1.89, 1798.17 10.15, 1797.71 32 M1765.71 0 C1788.79 -1.47, 1798.31 9.46, 1797.71 32 M1797.71 32 C1796.48 281.95, 1795.32 531.36, 1797.71 886.9 M1797.71 32 C1800.2 212.31, 1800.01 392.82, 1797.71 886.9 M1797.71 886.9 C1799.39 908.15, 1786.49 918.75, 1765.71 918.9 M1797.71 886.9 C1799.6 910.4, 1784.82 916.84, 1765.71 918.9 M1765.71 918.9 C1365.13 925.2, 963.2 924.14, 32 918.9 M1765.71 918.9 C1308.67 916.83, 852.74 917.14, 32 918.9 M32 918.9 C9.55 918.23, 1.85 907.1, 0 886.9 M32 918.9 C11.44 917.66, 0.21 906.22, 0 886.9 M0 886.9 C-2.95 627.25, -2.71 367.61, 0 32 M0 886.9 C0.13 601.38, 0.12 316.14, 0 32 M0 32 C-1.62 12.48, 11.75 -0.12, 32 0 M0 32 C-0.31 8.43, 11.19 -0.64, 32 0" stroke="#000000" stroke-width="1" fill="none"></path></g><g transform="translate(27.350841470156723 10) rotate(0 161.92794799804688 21.599999999999994)"><text x="0" y="0" font-family="Virgil, Segoe UI Emoji" font-size="36px" fill="#000000" text-anchor="start" style="white-space: pre;" direction="ltr" dominant-baseline="text-before-edge">EXREGAN Compiler</text></g><g stroke-linecap="round" transform="translate(840.3532248189167 153.56274083499278) rotate(0 130.75008285737533 57.11537255912975)"><path d="M28.56 0 M28.56 0 C69.41 1.99, 113.72 1.15, 232.94 0 M28.56 0 C75.36 -1.56, 124.02 -1.5, 232.94 0 M232.94 0 C251.28 -0.53, 260.69 10.03, 261.5 28.56 M232.94 0 C249.81 -1.05, 260.71 11.78, 261.5 28.56 M261.5 28.56 C262.27 50.71, 260.81 73.1, 261.5 85.67 M261.5 28.56 C262.02 47.49, 262.45 67.63, 261.5 85.67 M261.5 85.67 C259.87 104.65, 253.26 112.45, 232.94 114.23 M261.5 85.67 C261.11 105.06, 250.27 112.01, 232.94 114.23 M232.94 114.23 C190.89 114.57, 148.09 113.7, 28.56 114.23 M232.94 114.23 C176.41 114.62, 120.07 113.73, 28.56 114.23 M28.56 114.23 C8.23 113.1, -0.88 103.97, 0 85.67 M28.56 114.23 C7.72 115.39, -0.72 104.9, 0 85.67 M0 85.67 C1.83 62.14, -0.94 40.79, 0 28.56 M0 85.67 C-0.15 65.27, 0.36 47.52, 0 28.56 M0 28.56 C-1.53 9.1, 7.97 1.47, 28.56 0 M0 28.56 C1.27 10.95, 10.39 0.19, 28.56 0" stroke="#000000" stroke-width="1" fill="none"></path></g><g stroke-linecap="round"><g transform="translate(840.1845401019375 183.9351731920176) rotate(0 130.84540495663134 -0.8119121690922668)"><path d="M-0.98 -0.04 C42.62 -0.32, 218.89 -1.54, 262.67 -1.59 M0.71 -1.1 C44.12 -1.29, 218.77 -0.97, 262.12 -0.61" stroke="#000000" stroke-width="1" fill="none"></path></g></g><mask></mask><g transform="translate(956.3235240545464 161.97965101663448) rotate(0 16.019691467285156 9)"><text x="0" y="0" font-family="Virgil, Segoe UI Emoji" font-size="15.949505852345947px" fill="#000000" text-anchor="start" style="white-space: pre;" direction="ltr" dominant-baseline="text-before-edge">DFA</text></g><g stroke-linecap="round" transform="translate(135.89992719954307 205.78017240112132) rotate(0 121.54400538226372 53.093894841423264)"><path d="M26.55 0 M26.55 0 C81.58 2.01, 138.65 1.12, 216.54 0 M26.55 0 C90.26 0.1, 153.78 -1.24, 216.54 0 M216.54 0 C233.03 0.64, 242.83 9.41, 243.09 26.55 M216.54 0 C235.7 -0.75, 243.77 7.9, 243.09 26.55 M243.09 26.55 C243.95 46.72, 244.52 66.24, 243.09 79.64 M243.09 26.55 C243.62 46.6, 244.04 66.85, 243.09 79.64 M243.09 79.64 C242.05 96.18, 234.32 107.8, 216.54 106.19 M243.09 79.64 C243.81 97.53, 235.2 105.38, 216.54 106.19 M216.54 106.19 C170.74 104.94, 121.63 104.19, 26.55 106.19 M216.54 106.19 C175.91 106.61, 134.63 108.12, 26.55 106.19 M26.55 106.19 C9.5 105.07, 1.59 97.65, 0 79.64 M26.55 106.19 C8.15 105.11, -1.85 95.63, 0 79.64 M0 79.64 C-1.24 70.13, 1.37 57.9, 0 26.55 M0 79.64 C0.92 61.08, 0.4 43.5, 0 26.55 M0 26.55 C1.86 7.71, 8.07 0.22, 26.55 0 M0 26.55 C-0.97 7, 10.18 1.43, 26.55 0" stroke="#000000" stroke-width="1" fill="none"></path></g><g stroke-linecap="round"><g transform="translate(135.74311952722383 234.01409012568234) rotate(0 121.82484664318552 -0.17463114432388238)"><path d="M-0.34 0.16 C40.24 0.2, 203.29 -0.81, 243.99 -0.86 M1.68 -0.81 C42.1 -0.5, 203.05 0.73, 243.32 0.48" stroke="#000000" stroke-width="1" fill="none"></path></g></g><mask></mask><g transform="translate(243.70478947143738 213.6044502452542) rotate(0 17.250465393066406 8.400000000000006)"><text x="0" y="0" font-family="Virgil, Segoe UI Emoji" font-size="14.826505519515486px" fill="#000000" text-anchor="start" style="white-space: pre;" direction="ltr" dominant-baseline="text-before-edge">Tree</text></g><g stroke-linecap="round" transform="translate(430.29553767863933 206.0915335484695) rotate(0 120.86534142867237 52.7974350327201)"><path d="M26.4 0 M26.4 0 C67.65 -2.53, 106.47 -0.14, 215.33 0 M26.4 0 C69.16 -1.34, 111.49 -1.92, 215.33 0 M215.33 0 C231.92 -0.22, 243.06 9.11, 241.73 26.4 M215.33 0 C231.06 -1.04, 242.42 7.38, 241.73 26.4 M241.73 26.4 C242.18 47.78, 240.36 66.25, 241.73 79.2 M241.73 26.4 C240.57 40.32, 240.36 53.79, 241.73 79.2 M241.73 79.2 C239.86 98.48, 231.95 104.43, 215.33 105.59 M241.73 79.2 C242.44 98.95, 231.92 106.05, 215.33 105.59 M215.33 105.59 C168.05 105.67, 125.22 106.73, 26.4 105.59 M215.33 105.59 C172.22 104.95, 130.58 104.66, 26.4 105.59 M26.4 105.59 C7.26 104.6, -1.81 98.69, 0 79.2 M26.4 105.59 C7.4 106.06, 1.42 97.94, 0 79.2 M0 79.2 C-0.43 60.42, 1.45 38.19, 0 26.4 M0 79.2 C0.87 67.78, -0.31 56.45, 0 26.4 M0 26.4 C-1.03 10.34, 8.75 -1.41, 26.4 0 M0 26.4 C-0.22 6.9, 10.37 0.13, 26.4 0" stroke="#000000" stroke-width="1" fill="none"></path></g><g stroke-linecap="round"><g transform="translate(430.1396055716307 234.1678018507651) rotate(0 121.29295924134144 -0.6220889452105496)"><path d="M0.96 -1.13 C41.43 -1.23, 202.53 -0.26, 242.57 -0.18 M0.01 0.89 C40.38 0.38, 201.27 -2.1, 241.88 -2.14" stroke="#000000" stroke-width="1" fill="none"></path></g></g><mask></mask><g transform="translate(537.4984511023308 213.87212305668646) rotate(0 17.054168701171875 8.400000000000006)"><text x="0" y="0" font-family="Virgil, Segoe UI Emoji" font-size="14.743718920356017px" fill="#000000" text-anchor="start" style="white-space: pre;" direction="ltr" dominant-baseline="text-before-edge">Node</text></g><g stroke-linecap="round" transform="translate(837.3991397821027 289.12698548438453) rotate(0 129.1499932686981 56.416407701991034)"><path d="M28.21 0 M28.21 0 C106.09 -0.23, 185.62 1.24, 230.09 0 M28.21 0 C73.29 -0.13, 120.3 0.21, 230.09 0 M230.09 0 C249.66 -0.06, 256.38 8.98, 258.3 28.21 M230.09 0 C247.86 -0.39, 256 7.88, 258.3 28.21 M258.3 28.21 C260.18 48.97, 256.37 67.85, 258.3 84.62 M258.3 28.21 C257.98 49.73, 258.81 73.91, 258.3 84.62 M258.3 84.62 C259.52 103.59, 249.93 113.74, 230.09 112.83 M258.3 84.62 C258.71 103.18, 249.97 114.42, 230.09 112.83 M230.09 112.83 C168.8 113.84, 107.72 115.98, 28.21 112.83 M230.09 112.83 C176.83 112.68, 125.04 113.05, 28.21 112.83 M28.21 112.83 C10.69 111.49, 1.55 104.67, 0 84.62 M28.21 112.83 C10.86 111.41, -1.45 105.61, 0 84.62 M0 84.62 C-1.47 63.56, 0.34 44.88, 0 28.21 M0 84.62 C-1.19 63.19, -0.21 42.8, 0 28.21 M0 28.21 C-0.93 10.57, 8.62 -0.71, 28.21 0 M0 28.21 C0.6 11.24, 10.48 -1.43, 28.21 0" stroke="#000000" stroke-width="1" fill="none"></path></g><g stroke-linecap="round"><g transform="translate(837.2325193900823 319.1277269656926) rotate(0 129.2454769349394 -0.24970329292460747)"><path d="M0.05 -0.65 C43.5 -0.6, 216.92 -0.32, 259.88 -0.18 M-1.39 1.62 C42.09 1.34, 215.95 -1.55, 259.56 -2.12" stroke="#000000" stroke-width="1" fill="none"></path></g></g><mask></mask><g transform="translate(922.6479559847656 297.44089144563753) rotate(0 43.028961181640625 9)"><text x="0" y="0" font-family="Virgil, Segoe UI Emoji" font-size="15.754319450156636px" fill="#000000" text-anchor="start" style="white-space: pre;" direction="ltr" dominant-baseline="text-before-edge">CheckString</text></g><g stroke-linecap="round" transform="translate(986.5956233712207 576.7617382974079) rotate(0 129.14999326869815 56.416407701991034)"><path d="M28.21 0 M28.21 0 C70.15 -3.31, 114.03 -1.03, 230.09 0 M28.21 0 C98.3 -1.72, 169.94 -1.33, 230.09 0 M230.09 0 C249.69 1.14, 259.49 7.62, 258.3 28.21 M230.09 0 C250.76 0.02, 256.61 11.14, 258.3 28.21 M258.3 28.21 C258.25 45.47, 256.86 59.77, 258.3 84.62 M258.3 28.21 C258.42 46.95, 258.72 65, 258.3 84.62 M258.3 84.62 C257.34 102.64, 248.65 110.98, 230.09 112.83 M258.3 84.62 C259.43 101.6, 250.11 112.57, 230.09 112.83 M230.09 112.83 C183.29 111.3, 135.38 110.39, 28.21 112.83 M230.09 112.83 C186.51 113.91, 142.59 113.77, 28.21 112.83 M28.21 112.83 C9.14 112.53, -0.63 102.55, 0 84.62 M28.21 112.83 C8.9 111.85, -0.53 101.51, 0 84.62 M0 84.62 C0.96 73.13, 1.32 62.86, 0 28.21 M0 84.62 C1.29 70.52, 0.7 56.75, 0 28.21 M0 28.21 C-0.87 8.45, 10.97 -0.27, 28.21 0 M0 28.21 C-0.21 7.46, 8.33 0.02, 28.21 0" stroke="#000000" stroke-width="1" fill="none"></path></g><g stroke-linecap="round"><g transform="translate(986.4290029792003 606.7624797787164) rotate(0 128.62179413999593 -0.593559596318471)"><path d="M-0.92 -1.15 C42.03 -1.34, 214.79 -0.35, 258.16 -0.13 M0.8 0.87 C43.51 0.81, 213.93 -1.6, 256.93 -2.05" stroke="#000000" stroke-width="1" fill="none"></path></g></g><mask></mask><g transform="translate(1085.3775170747074 584.6397693561883) rotate(0 32.6575927734375 9)"><text x="0" y="0" font-family="Virgil, Segoe UI Emoji" font-size="15.754319450156636px" fill="#000000" text-anchor="start" style="white-space: pre;" direction="ltr" dominant-baseline="text-before-edge">Conjunto</text></g><g stroke-linecap="round" transform="translate(102.26380571051504 196.65164438549692) rotate(0 297.2128241506716 135.05506361074737)"><path d="M32 0 M32 0 C198.73 -1.76, 366.45 -2.66, 562.43 0 M32 0 C171.15 -1.44, 309.62 -1.41, 562.43 0 M562.43 0 C585.61 -1.94, 594.47 11.92, 594.43 32 M562.43 0 C582.83 0.97, 595.41 10.64, 594.43 32 M594.43 32 C593.74 91.97, 592.33 149.63, 594.43 238.11 M594.43 32 C593.88 100.59, 594.16 167.37, 594.43 238.11 M594.43 238.11 C594.01 259.19, 585.62 271.72, 562.43 270.11 M594.43 238.11 C594.98 258.04, 584.48 269.66, 562.43 270.11 M562.43 270.11 C390.62 270.48, 219.38 270.1, 32 270.11 M562.43 270.11 C404.34 269.53, 246.89 269.95, 32 270.11 M32 270.11 C12.19 268.64, 1.86 261.09, 0 238.11 M32 270.11 C12.43 269.68, 1.53 260.72, 0 238.11 M0 238.11 C0.9 169.38, -1.5 98.54, 0 32 M0 238.11 C0.44 160.71, 0.42 84.37, 0 32 M0 32 C-1.51 10.81, 11.98 0.74, 32 0 M0 32 C-0.67 10.77, 9.63 0.22, 32 0" stroke="#000000" stroke-width="1" fill="none"></path></g><g transform="translate(112.01442710962169 167.85288188118022) rotate(0 68.59994506835938 12)"><text x="0" y="0" font-family="Virgil, Segoe UI Emoji" font-size="20px" fill="#000000" text-anchor="start" style="white-space: pre;" direction="ltr" dominant-baseline="text-before-edge">Tree Package</text></g><g stroke-linecap="round" transform="translate(298.37582511223707 338.543819653723) rotate(0 92.19617771469095 40.27392506088404)"><path d="M20.14 0 M20.14 0 C62.63 -0.11, 100.51 -0.97, 164.26 0 M20.14 0 C53.35 0.84, 84.54 1.02, 164.26 0 M164.26 0 C177.21 0.33, 184.84 7.87, 184.39 20.14 M164.26 0 C178.59 2.29, 185.11 4.41, 184.39 20.14 M184.39 20.14 C185.61 32.84, 184.89 43.33, 184.39 60.41 M184.39 20.14 C183.94 31.22, 183.93 42.88, 184.39 60.41 M184.39 60.41 C185.88 73.54, 178.32 81.61, 164.26 80.55 M184.39 60.41 C185.36 74.43, 178.04 79.07, 164.26 80.55 M164.26 80.55 C116.62 78.13, 70.03 78.07, 20.14 80.55 M164.26 80.55 C131.78 80.19, 97.38 79.03, 20.14 80.55 M20.14 80.55 C6.75 82.23, -0.51 72.12, 0 60.41 M20.14 80.55 C5.1 79.75, -1.42 72.5, 0 60.41 M0 60.41 C-0.61 52.36, -1.81 46.01, 0 20.14 M0 60.41 C-0.37 48.71, 0.14 35.48, 0 20.14 M0 20.14 C-1.53 6.22, 6.1 -0.61, 20.14 0 M0 20.14 C1.36 6.22, 6.22 1.77, 20.14 0" stroke="#000000" stroke-width="1" fill="none"></path></g><g stroke-linecap="round"><g transform="translate(298.2568799780962 359.960419246017) rotate(0 93.1473936487389 0.6185724778608233)"><path d="M1 0.68 C31.72 0.48, 153.45 0.1, 183.91 -0.2 M0.07 0 C31.21 0.53, 155.2 1.45, 186.22 1.43" stroke="#000000" stroke-width="1" fill="none"></path></g></g><mask></mask><g transform="translate(364.7731243437547 344.36730506237774) rotate(0 26.003707885742188 6.600000000000023)"><text x="0" y="0" font-family="Virgil, Segoe UI Emoji" font-size="11.246520414280896px" fill="#000000" text-anchor="start" style="white-space: pre;" direction="ltr" dominant-baseline="text-before-edge">NodeType</text></g><g transform="translate(157.27358346534447 238.3767525291551) rotate(0 69.24303436279297 33.60000000000002)"><text x="0" y="0" font-family="Virgil, Segoe UI Emoji" font-size="8.11156332639847px" fill="#000000" text-anchor="start" style="white-space: pre;" direction="ltr" dominant-baseline="text-before-edge">+ Root: Node</text><text x="0" y="9.6" font-family="Virgil, Segoe UI Emoji" font-size="8.11156332639847px" fill="#000000" text-anchor="start" style="white-space: pre;" direction="ltr" dominant-baseline="text-before-edge">+ Body: Node</text><text x="0" y="19.2" font-family="Virgil, Segoe UI Emoji" font-size="8.11156332639847px" fill="#000000" text-anchor="start" style="white-space: pre;" direction="ltr" dominant-baseline="text-before-edge">+ Name: String</text><text x="0" y="28.799999999999997" font-family="Virgil, Segoe UI Emoji" font-size="8.11156332639847px" fill="#000000" text-anchor="start" style="white-space: pre;" direction="ltr" dominant-baseline="text-before-edge">+ followTable: FollowTable</text><text x="0" y="38.4" font-family="Virgil, Segoe UI Emoji" font-size="8.11156332639847px" fill="#000000" text-anchor="start" style="white-space: pre;" direction="ltr" dominant-baseline="text-before-edge">+ transitionTable: TransitionTable</text><text x="0" y="48" font-family="Virgil, Segoe UI Emoji" font-size="8.11156332639847px" fill="#000000" text-anchor="start" style="white-space: pre;" direction="ltr" dominant-baseline="text-before-edge">+ afnd: AFND</text><text x="0" y="57.599999999999994" font-family="Virgil, Segoe UI Emoji" font-size="8.11156332639847px" fill="#000000" text-anchor="start" style="white-space: pre;" direction="ltr" dominant-baseline="text-before-edge">+ afd: dfa </text></g><g transform="translate(442.02640951209037 238.42770937049664) rotate(0 35.03948211669922 29.399999999999977)"><text x="0" y="0" font-family="Virgil, Segoe UI Emoji" font-size="7.813900726137744px" fill="#000000" text-anchor="start" style="white-space: pre;" direction="ltr" dominant-baseline="text-before-edge">+ first: Set</text><text x="0" y="8.4" font-family="Virgil, Segoe UI Emoji" font-size="7.813900726137744px" fill="#000000" text-anchor="start" style="white-space: pre;" direction="ltr" dominant-baseline="text-before-edge">+ last: Set</text><text x="0" y="16.8" font-family="Virgil, Segoe UI Emoji" font-size="7.813900726137744px" fill="#000000" text-anchor="start" style="white-space: pre;" direction="ltr" dominant-baseline="text-before-edge">+ follow: Set</text><text x="0" y="25.200000000000003" font-family="Virgil, Segoe UI Emoji" font-size="7.813900726137744px" fill="#000000" text-anchor="start" style="white-space: pre;" direction="ltr" dominant-baseline="text-before-edge">+ nullable: boolean</text><text x="0" y="33.6" font-family="Virgil, Segoe UI Emoji" font-size="7.813900726137744px" fill="#000000" text-anchor="start" style="white-space: pre;" direction="ltr" dominant-baseline="text-before-edge">+ lexeme: Object</text><text x="0" y="42" font-family="Virgil, Segoe UI Emoji" font-size="7.813900726137744px" fill="#000000" text-anchor="start" style="white-space: pre;" direction="ltr" dominant-baseline="text-before-edge">+ type: NodeType</text><text x="0" y="50.400000000000006" font-family="Virgil, Segoe UI Emoji" font-size="7.813900726137744px" fill="#000000" text-anchor="start" style="white-space: pre;" direction="ltr" dominant-baseline="text-before-edge"></text></g><g stroke-linecap="round" transform="translate(1192.35044665669 214.66819679541146) rotate(0 121.54400538226366 53.093894841423264)"><path d="M26.55 0 M26.55 0 C97.55 -2.57, 168.34 -0.08, 216.54 0 M26.55 0 C79.19 0.63, 133.41 -0.4, 216.54 0 M216.54 0 C234.3 -1.58, 241.96 7.41, 243.09 26.55 M216.54 0 C236.2 -1.95, 242.35 9.9, 243.09 26.55 M243.09 26.55 C243.06 39.53, 242.36 54.54, 243.09 79.64 M243.09 26.55 C242.72 42.29, 242.15 58.09, 243.09 79.64 M243.09 79.64 C241.2 95.66, 235.91 106.57, 216.54 106.19 M243.09 79.64 C241.7 97.12, 235.59 104.64, 216.54 106.19 M216.54 106.19 C157.89 103.5, 101.21 106.24, 26.55 106.19 M216.54 106.19 C172.11 105.56, 125.97 105.93, 26.55 106.19 M26.55 106.19 C10.31 104.44, -1.84 95.82, 0 79.64 M26.55 106.19 C10.18 106.05, 0.16 96.38, 0 79.64 M0 79.64 C-1.8 60.92, 0.19 40.34, 0 26.55 M0 79.64 C0.49 60.14, 0.47 42.3, 0 26.55 M0 26.55 C-1.48 9.8, 9.4 0.21, 26.55 0 M0 26.55 C-1.67 8.55, 7.94 1.04, 26.55 0" stroke="#000000" stroke-width="1" fill="none"></path></g><g stroke-linecap="round"><g transform="translate(1192.1936389843709 242.90211451997237) rotate(0 120.86632411186986 -0.2274560946617612)"><path d="M-0.04 -0.9 C40.65 -0.99, 202.71 -0.11, 243.25 0.11 M-1.52 1.24 C39.07 0.73, 201.55 -1.25, 242.2 -1.7" stroke="#000000" stroke-width="1" fill="none"></path></g></g><mask></mask><g transform="translate(1256.5401481815481 221.65693955296757) rotate(0 57.234779357910156 8.400000000000006)"><text x="0" y="0" font-family="Virgil, Segoe UI Emoji" font-size="14.826505519515486px" fill="#000000" text-anchor="start" style="white-space: pre;" direction="ltr" dominant-baseline="text-before-edge">TransitionTable</text></g><g stroke-linecap="round" transform="translate(1486.913393380835 214.8225369456938) rotate(0 120.86534142867242 52.7974350327201)"><path d="M26.4 0 M26.4 0 C83.43 -0.04, 140 0.56, 215.33 0 M26.4 0 C64.96 0.66, 103.07 0.07, 215.33 0 M215.33 0 C231.49 1.71, 240.03 8.15, 241.73 26.4 M215.33 0 C233.98 -1.05, 241.96 6.71, 241.73 26.4 M241.73 26.4 C242.57 42.1, 240.96 58.39, 241.73 79.2 M241.73 26.4 C240.77 40.23, 240.68 56.79, 241.73 79.2 M241.73 79.2 C242.11 95.59, 232.74 106.77, 215.33 105.59 M241.73 79.2 C240.19 96.98, 234.41 103.64, 215.33 105.59 M215.33 105.59 C161.83 105.89, 105.04 106.28, 26.4 105.59 M215.33 105.59 C149.43 105.05, 81.51 103.4, 26.4 105.59 M26.4 105.59 C7.28 106.75, -0.12 96.93, 0 79.2 M26.4 105.59 C7.85 107.43, 1.42 94.98, 0 79.2 M0 79.2 C0.66 68.39, -1.76 55.53, 0 26.4 M0 79.2 C0.84 61.95, 0.77 46.47, 0 26.4 M0 26.4 C0.21 7.35, 8.54 -0.79, 26.4 0 M0 26.4 C1.04 10.23, 9.95 -1.22, 26.4 0" stroke="#000000" stroke-width="1" fill="none"></path></g><g stroke-linecap="round"><g transform="translate(1486.757461273826 242.8988052479894) rotate(0 121.23347541533929 -0.04807636963261075)"><path d="M0.6 -0.21 C41.25 -0.24, 202.96 -0.46, 243.02 -0.34 M-0.55 -1.37 C40.1 -1.16, 201.92 1.26, 242.55 1.28" stroke="#000000" stroke-width="1" fill="none"></path></g></g><mask></mask><g transform="translate(1594.1163068045264 222.60312645391076) rotate(0 21.7562255859375 8.400000000000006)"><text x="0" y="0" font-family="Virgil, Segoe UI Emoji" font-size="14.743718920356017px" fill="#000000" text-anchor="start" style="white-space: pre;" direction="ltr" dominant-baseline="text-before-edge">State</text></g><g stroke-linecap="round" transform="translate(1158.8816614127104 205.38264778272122) rotate(0 297.2128241506716 135.05506361074737)"><path d="M32 0 M32 0 C217.59 -2.38, 403.67 -1.89, 562.43 0 M32 0 C181.72 1.39, 332.24 1.34, 562.43 0 M562.43 0 C583.11 0.91, 593.51 10.86, 594.43 32 M562.43 0 C581.66 -0.1, 593.83 9.77, 594.43 32 M594.43 32 C595.18 103.54, 593.79 174.43, 594.43 238.11 M594.43 32 C593.44 78.48, 592.15 124.54, 594.43 238.11 M594.43 238.11 C595.6 258.1, 583.92 271.4, 562.43 270.11 M594.43 238.11 C592.48 259.26, 582.52 272.02, 562.43 270.11 M562.43 270.11 C358.94 270.56, 156.32 269.61, 32 270.11 M562.43 270.11 C372.56 267.95, 183.66 268.23, 32 270.11 M32 270.11 C10.81 269.28, 1.6 260.68, 0 238.11 M32 270.11 C8.85 268.41, 1.67 260.03, 0 238.11 M0 238.11 C-0.85 165.76, -2.03 93.14, 0 32 M0 238.11 C1.6 165.08, 0.71 91.76, 0 32 M0 32 C-0.79 11.57, 11.91 1, 32 0 M0 32 C-1.22 9.25, 10.35 1.99, 32 0" stroke="#000000" stroke-width="1" fill="none"></path></g><g transform="translate(1168.632282811817 176.58388527840447) rotate(0 77.23992919921875 12)"><text x="0" y="0" font-family="Virgil, Segoe UI Emoji" font-size="20px" fill="#000000" text-anchor="start" style="white-space: pre;" direction="ltr" dominant-baseline="text-before-edge">TransitionTable</text></g><g stroke-linecap="round" transform="translate(1355.2297731068618 347.2748230509472) rotate(0 92.19617771469098 40.27392506088404)"><path d="M20.14 0 M20.14 0 C76.12 0.7, 128.32 1.43, 164.26 0 M20.14 0 C52.81 0.19, 83.46 1.49, 164.26 0 M164.26 0 C176.77 0.2, 182.57 6.63, 184.39 20.14 M164.26 0 C177.08 -0.9, 185.52 6.81, 184.39 20.14 M184.39 20.14 C183.74 29.4, 183.04 39.85, 184.39 60.41 M184.39 20.14 C184.13 28.75, 185.31 36.88, 184.39 60.41 M184.39 60.41 C184.55 75.12, 175.98 80.39, 164.26 80.55 M184.39 60.41 C183.16 75.74, 179.59 79.09, 164.26 80.55 M164.26 80.55 C121.17 79.95, 78.4 82.75, 20.14 80.55 M164.26 80.55 C134.22 79.39, 103.11 79.04, 20.14 80.55 M20.14 80.55 C8.31 81.78, -1.58 72.36, 0 60.41 M20.14 80.55 C8.38 81.14, 1.2 75.14, 0 60.41 M0 60.41 C-1.15 51.32, 1.05 40.33, 0 20.14 M0 60.41 C-0.84 46.29, -0.51 32.88, 0 20.14 M0 20.14 C1.24 7.72, 5.65 -1.23, 20.14 0 M0 20.14 C-0.31 8.7, 6.41 -0.34, 20.14 0" stroke="#000000" stroke-width="1" fill="none"></path></g><g stroke-linecap="round"><g transform="translate(1355.1108279727207 368.6914226432412) rotate(0 92.28696839217366 -0.21513976501182697)"><path d="M1.03 -0.4 C31.75 -0.27, 154.02 -0.22, 184.46 -0.33 M0.11 -1.66 C30.64 -1.21, 152.41 0.96, 183.41 1.23" stroke="#000000" stroke-width="1" fill="none"></path></g></g><mask></mask><g transform="translate(1421.6270723383793 353.0983084596019) rotate(0 27.734657287597656 6.600000000000023)"><text x="0" y="0" font-family="Virgil, Segoe UI Emoji" font-size="11.246520414280896px" fill="#000000" text-anchor="start" style="white-space: pre;" direction="ltr" dominant-baseline="text-before-edge">Transition</text></g><g transform="translate(1213.8914391675398 247.1077559263794) rotate(0 69.24303436279297 33.60000000000002)"><text x="0" y="0" font-family="Virgil, Segoe UI Emoji" font-size="8.11156332639847px" fill="#000000" text-anchor="start" style="white-space: pre;" direction="ltr" dominant-baseline="text-before-edge">+ Root: Node</text><text x="0" y="9.6" font-family="Virgil, Segoe UI Emoji" font-size="8.11156332639847px" fill="#000000" text-anchor="start" style="white-space: pre;" direction="ltr" dominant-baseline="text-before-edge">+ Body: Node</text><text x="0" y="19.2" font-family="Virgil, Segoe UI Emoji" font-size="8.11156332639847px" fill="#000000" text-anchor="start" style="white-space: pre;" direction="ltr" dominant-baseline="text-before-edge">+ Name: String</text><text x="0" y="28.799999999999997" font-family="Virgil, Segoe UI Emoji" font-size="8.11156332639847px" fill="#000000" text-anchor="start" style="white-space: pre;" direction="ltr" dominant-baseline="text-before-edge">+ followTable: FollowTable</text><text x="0" y="38.4" font-family="Virgil, Segoe UI Emoji" font-size="8.11156332639847px" fill="#000000" text-anchor="start" style="white-space: pre;" direction="ltr" dominant-baseline="text-before-edge">+ transitionTable: TransitionTable</text><text x="0" y="48" font-family="Virgil, Segoe UI Emoji" font-size="8.11156332639847px" fill="#000000" text-anchor="start" style="white-space: pre;" direction="ltr" dominant-baseline="text-before-edge">+ afnd: AFND</text><text x="0" y="57.599999999999994" font-family="Virgil, Segoe UI Emoji" font-size="8.11156332639847px" fill="#000000" text-anchor="start" style="white-space: pre;" direction="ltr" dominant-baseline="text-before-edge">+ afd: dfa </text></g><g transform="translate(1498.6442652142857 247.15871276772083) rotate(0 35.03948211669922 29.399999999999977)"><text x="0" y="0" font-family="Virgil, Segoe UI Emoji" font-size="7.813900726137744px" fill="#000000" text-anchor="start" style="white-space: pre;" direction="ltr" dominant-baseline="text-before-edge">+ first: Set</text><text x="0" y="8.4" font-family="Virgil, Segoe UI Emoji" font-size="7.813900726137744px" fill="#000000" text-anchor="start" style="white-space: pre;" direction="ltr" dominant-baseline="text-before-edge">+ last: Set</text><text x="0" y="16.8" font-family="Virgil, Segoe UI Emoji" font-size="7.813900726137744px" fill="#000000" text-anchor="start" style="white-space: pre;" direction="ltr" dominant-baseline="text-before-edge">+ follow: Set</text><text x="0" y="25.200000000000003" font-family="Virgil, Segoe UI Emoji" font-size="7.813900726137744px" fill="#000000" text-anchor="start" style="white-space: pre;" direction="ltr" dominant-baseline="text-before-edge">+ nullable: boolean</text><text x="0" y="33.6" font-family="Virgil, Segoe UI Emoji" font-size="7.813900726137744px" fill="#000000" text-anchor="start" style="white-space: pre;" direction="ltr" dominant-baseline="text-before-edge">+ lexeme: Object</text><text x="0" y="42" font-family="Virgil, Segoe UI Emoji" font-size="7.813900726137744px" fill="#000000" text-anchor="start" style="white-space: pre;" direction="ltr" dominant-baseline="text-before-edge">+ type: NodeType</text><text x="0" y="50.400000000000006" font-family="Virgil, Segoe UI Emoji" font-size="7.813900726137744px" fill="#000000" text-anchor="start" style="white-space: pre;" direction="ltr" dominant-baseline="text-before-edge"></text></g><g stroke-linecap="round"><g transform="translate(1371.624646490133 347.6893385070294) rotate(0 -23.92077798728053 -11.958615658328085)"><path d="M-0.95 -0.67 C-9.01 -4.67, -40.63 -19.81, -48.59 -23.92 M0.75 1.59 C-6.92 -2.72, -38.48 -21.2, -46.33 -25.5" stroke="#000000" stroke-width="1" fill="none"></path></g></g><mask></mask><g stroke-linecap="round" transform="translate(728.9582000488883 433.075851685077) rotate(0 129.1499932686981 56.416407701991034)"><path d="M28.21 0 M28.21 0 C80.75 -2.09, 134.56 1.46, 230.09 0 M28.21 0 C99.97 0.65, 169.71 2.17, 230.09 0 M230.09 0 C250.26 1.29, 259.09 8.32, 258.3 28.21 M230.09 0 C248.68 1.23, 258.13 9.99, 258.3 28.21 M258.3 28.21 C259.27 45.95, 259.25 61.18, 258.3 84.62 M258.3 28.21 C259.68 47.63, 259.55 68.1, 258.3 84.62 M258.3 84.62 C258.33 102.39, 250.46 114.28, 230.09 112.83 M258.3 84.62 C259.96 102.46, 249.95 113.83, 230.09 112.83 M230.09 112.83 C161.97 114.19, 94.15 114.45, 28.21 112.83 M230.09 112.83 C170.63 112.61, 111.43 111.69, 28.21 112.83 M28.21 112.83 C10.8 111, 0.39 101.88, 0 84.62 M28.21 112.83 C9.59 110.8, -0.32 102.73, 0 84.62 M0 84.62 C1.35 63.53, -2.27 43.58, 0 28.21 M0 84.62 C0.59 69.27, 0.2 55.17, 0 28.21 M0 28.21 C0.84 9.41, 11.18 0.97, 28.21 0 M0 28.21 C1.07 10.54, 8.27 -2.2, 28.21 0" stroke="#000000" stroke-width="1" fill="none"></path></g><g stroke-linecap="round"><g transform="translate(728.791579656868 463.07659316638507) rotate(0 128.85168457601384 -0.17944454477168392)"><path d="M-0.11 -1.18 C42.95 -1.1, 216.09 0.41, 259.32 0.69 M-1.62 0.82 C41.25 0.58, 215.29 -0.44, 258.71 -0.81" stroke="#000000" stroke-width="1" fill="none"></path></g></g><mask></mask><g transform="translate(827.5542801654149 440.9538827438569) rotate(0 20.900230407714844 9)"><text x="0" y="0" font-family="Virgil, Segoe UI Emoji" font-size="15.754319450156636px" fill="#000000" text-anchor="start" style="white-space: pre;" direction="ltr" dominant-baseline="text-before-edge">AFND</text></g><g stroke-linecap="round" transform="translate(973.5961625520903 801.6644246934159) rotate(0 129.1499932686981 56.416407701991034)"><path d="M28.21 0 M28.21 0 C107.69 0.42, 185.89 -2.22, 230.09 0 M28.21 0 C87.48 -0.54, 146.16 -1.37, 230.09 0 M230.09 0 C247.28 0.3, 257.82 8.25, 258.3 28.21 M230.09 0 C248.55 2.22, 259.07 7.78, 258.3 28.21 M258.3 28.21 C257.09 40.75, 256.69 51.53, 258.3 84.62 M258.3 28.21 C258.38 46.38, 257.92 65.6, 258.3 84.62 M258.3 84.62 C257.54 105.04, 249.63 110.87, 230.09 112.83 M258.3 84.62 C259.02 104.04, 248.26 113.99, 230.09 112.83 M230.09 112.83 C178.42 115.53, 129.98 114.26, 28.21 112.83 M230.09 112.83 C173.2 113.3, 116.96 113.29, 28.21 112.83 M28.21 112.83 C7.76 114.09, -0.3 103.34, 0 84.62 M28.21 112.83 C7.82 114.61, -0.56 104.45, 0 84.62 M0 84.62 C1.26 66.16, -1.59 42.8, 0 28.21 M0 84.62 C-0.12 73, -0.21 61.67, 0 28.21 M0 28.21 C0.68 7.93, 9.45 -0.53, 28.21 0 M0 28.21 C1.99 10.54, 10.55 -1.64, 28.21 0" stroke="#000000" stroke-width="1" fill="none"></path></g><g stroke-linecap="round"><g transform="translate(973.4295421600699 831.6651661747239) rotate(0 129.60937020960432 -0.4755919449811472)"><path d="M0.81 0.66 C44.14 0.33, 216.48 -1.61, 259.45 -1.61 M-0.23 -0.03 C43.06 -0.29, 215.9 -0.48, 258.9 -0.66" stroke="#000000" stroke-width="1" fill="none"></path></g></g><mask></mask><g transform="translate(1034.0235766424005 808.6973930357483) rotate(0 61.818702697753906 9)"><text x="0" y="0" font-family="Virgil, Segoe UI Emoji" font-size="15.754319450156636px" fill="#000000" text-anchor="start" style="white-space: pre;" direction="ltr" dominant-baseline="text-before-edge">ExceptionReport</text></g><g stroke-linecap="round" transform="translate(201.98852788353793 591.0165734033465) rotate(0 378.84512923206427 170.88168571223474)"><path d="M32 0 M32 0 C199.66 -1.55, 368.64 -1.63, 725.69 0 M32 0 C176.27 0.47, 319.89 0.54, 725.69 0 M725.69 0 C747.73 -1.39, 756.49 12.61, 757.69 32 M725.69 0 C744.97 -1.66, 759.95 12.66, 757.69 32 M757.69 32 C755.87 117.56, 757.02 201.49, 757.69 309.76 M757.69 32 C757.5 108.48, 756.43 183.08, 757.69 309.76 M757.69 309.76 C755.92 329.3, 748.15 341.09, 725.69 341.76 M757.69 309.76 C757.35 329.78, 748.44 342.5, 725.69 341.76 M725.69 341.76 C524.47 344.86, 321.26 344.96, 32 341.76 M725.69 341.76 C479.79 341.07, 232.92 340.6, 32 341.76 M32 341.76 C9.51 343.3, -0.34 330.05, 0 309.76 M32 341.76 C11.85 341.36, -1.83 332.43, 0 309.76 M0 309.76 C2.48 228.88, 2.26 144.11, 0 32 M0 309.76 C-0.67 219.69, -0.02 130.5, 0 32 M0 32 C-1.75 11.82, 10.88 1.35, 32 0 M0 32 C-0.7 12.04, 12.28 1.04, 32 0" stroke="#000000" stroke-width="1" fill="none"></path></g><g stroke-linecap="round" transform="translate(311.5186467695207 678.4001104586425) rotate(0 92.19617771469095 40.27392506088404)"><path d="M20.14 0 M20.14 0 C63.73 1.89, 110.93 2.08, 164.26 0 M20.14 0 C59.79 0.54, 102.24 0.66, 164.26 0 M164.26 0 C176.52 -0.95, 186 7.55, 184.39 20.14 M164.26 0 C177.98 0.3, 183.57 5.14, 184.39 20.14 M184.39 20.14 C182.73 30.83, 186.15 39.72, 184.39 60.41 M184.39 20.14 C183.1 35.06, 183.59 49.18, 184.39 60.41 M184.39 60.41 C182.78 73.08, 179.08 81.52, 164.26 80.55 M184.39 60.41 C185.9 73.69, 178.32 80.48, 164.26 80.55 M164.26 80.55 C132.37 79.12, 100.89 79.88, 20.14 80.55 M164.26 80.55 C129.23 79.9, 95.23 80.35, 20.14 80.55 M20.14 80.55 C6.41 80.36, 1.9 73.4, 0 60.41 M20.14 80.55 C5.48 79.81, -2.05 73.61, 0 60.41 M0 60.41 C-1.98 49.61, 0.85 39.63, 0 20.14 M0 60.41 C0.25 49.35, -0.88 41.07, 0 20.14 M0 20.14 C-1.72 8.56, 5.74 -1.23, 20.14 0 M0 20.14 C1.25 8.1, 4.41 -1.9, 20.14 0" stroke="#000000" stroke-width="1" fill="none"></path></g><g stroke-linecap="round"><g transform="translate(311.39970163537964 699.8167100509365) rotate(0 91.64573579546335 -0.1702252363812704)"><path d="M-1.18 0.77 C29.41 0.94, 153.53 0.59, 184.47 0.51 M0.4 0.12 C30.74 0.01, 152.89 -0.85, 183.42 -1.15" stroke="#000000" stroke-width="1" fill="none"></path></g></g><mask></mask><g transform="translate(362.24419559380624 684.4257712404201) rotate(0 36.715415954589844 6.600000000000023)"><text x="0" y="0" font-family="Virgil, Segoe UI Emoji" font-size="11.246520414280896px" fill="#000000" text-anchor="start" style="white-space: pre;" direction="ltr" dominant-baseline="text-before-edge">ExreganLexer</text></g><g stroke-linecap="round" transform="translate(619.2907064682137 674.3345000945815) rotate(0 92.19617771469092 40.27392506088404)"><path d="M20.14 0 M20.14 0 C71.55 0.4, 123.4 1.29, 164.26 0 M20.14 0 C61.4 -1.64, 102.03 -1.8, 164.26 0 M164.26 0 C176.93 -0.98, 183.4 5.3, 184.39 20.14 M164.26 0 C176.01 0.19, 184.78 6.03, 184.39 20.14 M184.39 20.14 C183.62 31.21, 182.81 40.77, 184.39 60.41 M184.39 20.14 C184.58 34.27, 185.08 49.28, 184.39 60.41 M184.39 60.41 C183.01 74.17, 176.95 78.96, 164.26 80.55 M184.39 60.41 C184.06 73.73, 179.76 82.75, 164.26 80.55 M164.26 80.55 C121.81 79.43, 82.52 80.36, 20.14 80.55 M164.26 80.55 C119.62 78.32, 74.99 78.59, 20.14 80.55 M20.14 80.55 C7.34 79.89, 1.36 73.52, 0 60.41 M20.14 80.55 C5.3 80.83, -2.25 72.28, 0 60.41 M0 60.41 C-0.23 51.28, -1.65 40.87, 0 20.14 M0 60.41 C0.72 48.69, 0.63 37.31, 0 20.14 M0 20.14 C-1.81 8.55, 5.09 0.08, 20.14 0 M0 20.14 C-1.91 4.91, 7.28 0.12, 20.14 0" stroke="#000000" stroke-width="1" fill="none"></path></g><g stroke-linecap="round"><g transform="translate(619.1717613340726 695.7510996868755) rotate(0 92.15786581327478 -0.10148314194668728)"><path d="M0.24 0.5 C31.06 0.55, 154.7 0.86, 185.41 0.67 M-1.09 -0.28 C29.59 -0.58, 154.06 -1.05, 184.85 -0.91" stroke="#000000" stroke-width="1" fill="none"></path></g></g><mask></mask><g transform="translate(696.7409879384646 679.7536439793892) rotate(0 18.422332763671875 6.600000000000023)"><text x="0" y="0" font-family="Virgil, Segoe UI Emoji" font-size="11.246520414280896px" fill="#000000" text-anchor="start" style="white-space: pre;" direction="ltr" dominant-baseline="text-before-edge">Parser</text></g><g stroke-linecap="round" transform="translate(476.9346328892717 784.1303958009808) rotate(0 92.19617771469092 40.27392506088404)"><path d="M20.14 0 M20.14 0 C74.94 -0.73, 134.81 -1.6, 164.26 0 M20.14 0 C59.36 -0.29, 98.46 0.64, 164.26 0 M164.26 0 C177.21 -0.38, 184.18 5.35, 184.39 20.14 M164.26 0 C175.58 -1.04, 184.27 5.22, 184.39 20.14 M184.39 20.14 C183.76 38.13, 185.64 53.3, 184.39 60.41 M184.39 20.14 C183.78 33.28, 184.32 48.2, 184.39 60.41 M184.39 60.41 C183.28 72.12, 177.47 82.27, 164.26 80.55 M184.39 60.41 C184.77 73.1, 177.38 81.15, 164.26 80.55 M164.26 80.55 C120.21 79.64, 73.67 80.52, 20.14 80.55 M164.26 80.55 C115.91 82.52, 66.61 80.82, 20.14 80.55 M20.14 80.55 C4.84 80.99, 1.55 75.22, 0 60.41 M20.14 80.55 C8.67 81.6, 1.04 73.76, 0 60.41 M0 60.41 C1.7 43.33, -0.54 29.9, 0 20.14 M0 60.41 C-0.19 48.19, -0.59 37.3, 0 20.14 M0 20.14 C-1.33 5.99, 5.14 1.29, 20.14 0 M0 20.14 C1.48 5.8, 6.4 -0.64, 20.14 0" stroke="#000000" stroke-width="1" fill="none"></path></g><g stroke-linecap="round"><g transform="translate(476.8156877551311 805.5469953932748) rotate(0 92.22721800323845 0.11728960477694272)"><path d="M-1.08 -0.59 C29.87 -0.8, 154.64 -1.53, 185.54 -1.48 M0.55 1.72 C31.43 1.63, 154.57 -0.41, 185.05 -0.53" stroke="#000000" stroke-width="1" fill="none"></path></g></g><mask></mask><g transform="translate(554.3849143595227 789.5495396857882) rotate(0 9.610183715820312 6.600000000000023)"><text x="0" y="0" font-family="Virgil, Segoe UI Emoji" font-size="11.246520414280896px" fill="#000000" text-anchor="start" style="white-space: pre;" direction="ltr" dominant-baseline="text-before-edge">Sym</text></g><g transform="translate(213.71259822203638 562.3256755448174) rotate(0 61.539947509765625 12)"><text x="0" y="0" font-family="Virgil, Segoe UI Emoji" font-size="20px" fill="#000000" text-anchor="start" style="white-space: pre;" direction="ltr" dominant-baseline="text-before-edge">Analizadores</text></g><g stroke-linecap="round"><g transform="translate(480.6708677550163 783.6299320021506) rotate(0 -11.989298976364239 -11.81314666118567)"><path d="M0.7 0.14 C-3.17 -3.9, -19.61 -19.92, -23.74 -23.77 M-0.39 -0.83 C-4.38 -4.75, -20.57 -18.42, -24.68 -22.47" stroke="#000000" stroke-width="1" fill="none"></path></g></g><mask></mask><g stroke-linecap="round"><g transform="translate(500.6844838595463 718.3021053708414) rotate(0 57.81332242417386 -1.4993763202305104)"><path d="M-1.06 -0.45 C18.4 -0.74, 97.11 -2.13, 116.69 -2.55 M0.58 -1.73 C19.96 -1.76, 96.91 -1.05, 116.12 -1.09" stroke="#000000" stroke-width="1" fill="none"></path></g></g><mask></mask><g stroke-linecap="round"><g transform="translate(1531.7343701934485 322.00359508492426) rotate(0 -14.871583840160838 12.953838572876009)"><path d="M-0.83 -0.91 C-5.83 3.7, -25.92 22.18, -30.68 26.82 M0.94 1.22 C-3.63 5.57, -23.29 21.17, -28.43 25.16" stroke="#000000" stroke-width="1" fill="none"></path></g></g><mask></mask><g stroke-linecap="round"><g transform="translate(430.0257729132293 254.44537515024518) rotate(0 -24.33461661947763 0.11052878265527966)"><path d="M-0.78 0.34 C-9.03 0.57, -40.78 1.11, -48.62 1.13 M1.01 -0.52 C-7.49 -0.65, -41.46 -1.14, -49.68 -0.78" stroke="#000000" stroke-width="1" fill="none"></path></g></g><mask></mask><g stroke-linecap="round"><g transform="translate(476.5108088201871 342.01888400494687) rotate(0 17.48157121937976 -13.928361324088826)"><path d="M-0.81 -0.26 C5.04 -4.66, 29.76 -21.19, 35.78 -25.66 M0.96 -1.44 C6.56 -6.28, 28.47 -23.46, 34.6 -27.6" stroke="#000000" stroke-width="1" fill="none"></path></g></g><mask></mask><g stroke-linecap="round"><g transform="translate(634.5314674785262 670.3311785857607) rotate(0 -236.9089199412054 -175.35371286286306)"><path d="M0.32 1.08 C-78.68 -57.16, -394.37 -291.53, -473.11 -349.96 M-0.98 0.6 C-80.22 -57.96, -395.56 -293.15, -474.13 -351.79" stroke="#000000" stroke-width="1" fill="none"></path></g></g><mask></mask><g stroke-linecap="round"><g transform="translate(807.4097937047146 716.9530872389421) rotate(0 79.89814391019371 59.470804569387724)"><path d="M-0.62 -1.15 C26.24 18.65, 133.55 98.91, 160.41 118.93 M1.26 0.86 C28.06 20.78, 133.18 100.24, 159.65 120.09" stroke="#000000" stroke-width="1" fill="none"></path></g></g><mask></mask><g stroke-linecap="round"><g transform="translate(815.7627629704765 681.610852085947) rotate(0 86.53044454945547 -24.15406645942079)"><path d="M-0.53 -1.04 C27.85 -8.81, 142.66 -39.7, 171.38 -47.37 M1.39 1.02 C30.04 -7.06, 145.38 -40.98, 173.59 -49.33" stroke="#000000" stroke-width="1" fill="none"></path></g></g><mask></mask><g stroke-linecap="round"><g transform="translate(647.4474858068194 314.43913452433554) rotate(0 41.533799265708296 64.14659409742893)"><path d="M-0.3 -0.58 C13.6 20.88, 69.63 105.99, 83.37 127.66 M1.74 1.73 C15.58 23.45, 69.7 107.88, 82.96 128.88" stroke="#000000" stroke-width="1" fill="none"></path></g></g><mask></mask><g stroke-linecap="round"><g transform="translate(1193.8558142229929 277.7747959860712) rotate(0 -45.94100736300436 -26.603704355868643)"><path d="M0.36 -1.07 C-14.86 -10.17, -76.13 -45.53, -91.61 -54.2 M-0.9 0.99 C-16.21 -8.01, -76.83 -43.7, -92.25 -53.06" stroke="#000000" stroke-width="1" fill="none"></path></g></g><mask></mask><g stroke-linecap="round"><g transform="translate(966.8823295246125 269.2643461387389) rotate(0 0.10710510098903114 10.553013887746346)"><path d="M0.24 0.61 C0.22 3.99, -0.91 17.94, -0.86 21.22 M-1.1 -0.12 C-0.68 2.86, 1.13 15.99, 1.31 19.61" stroke="#000000" stroke-width="1" fill="none"></path></g></g><mask></mask></svg>